<?xml version="1.0" encoding="UTF-8" standalone="no"?>
<!-- Created with Inkscape (http://www.inkscape.org/) -->

<svg
   xmlns:dc="http://purl.org/dc/elements/1.1/"
   xmlns:cc="http://creativecommons.org/ns#"
   xmlns:rdf="http://www.w3.org/1999/02/22-rdf-syntax-ns#"
   xmlns:svg="http://www.w3.org/2000/svg"
   xmlns="http://www.w3.org/2000/svg"
   xmlns:sodipodi="http://sodipodi.sourceforge.net/DTD/sodipodi-0.dtd"
   xmlns:inkscape="http://www.inkscape.org/namespaces/inkscape"
   width="180.18898"
   height="72.963783"
   viewBox="0 0 47.675002 19.305001"
   version="1.1"
   id="svg8"
   inkscape:version="0.92.1 r"
   sodipodi:docname="u2f-token.svg"
   inkscape:export-filename="/home/vi/u2f-demo/images/u2f-token.png"
   inkscape:export-xdpi="215.18021"
   inkscape:export-ydpi="215.18021">
  <defs
     id="defs2" />
  <sodipodi:namedview
     id="base"
     pagecolor="#ffffff"
     bordercolor="#666666"
     borderopacity="1.0"
     inkscape:pageopacity="0.0"
     inkscape:pageshadow="2"
     inkscape:zoom="6.1766784"
     inkscape:cx="103.31038"
     inkscape:cy="47.828512"
     inkscape:document-units="mm"
     inkscape:current-layer="layer1"
     showgrid="false"
     inkscape:window-width="1598"
     inkscape:window-height="880"
     inkscape:window-x="0"
     inkscape:window-y="18"
     inkscape:window-maximized="0"
     fit-margin-top="0"
     fit-margin-left="0"
     fit-margin-right="0"
     fit-margin-bottom="0"
     showguides="true"
     inkscape:guide-bbox="true"
     units="px" />
  <metadata
     id="metadata5">
    <rdf:RDF>
      <cc:Work
         rdf:about="">
        <dc:format>image/svg+xml</dc:format>
        <dc:type
           rdf:resource="http://purl.org/dc/dcmitype/StillImage" />
        <dc:title />
      </cc:Work>
    </rdf:RDF>
  </metadata>
  <g
     inkscape:label="Layer 1"
     inkscape:groupmode="layer"
     id="layer1"
     transform="translate(-108.39366,-145.84692)">
    <path
       style="opacity:1;fill:#4971b5;fill-opacity:1;fill-rule:evenodd;stroke:none;stroke-width:3;stroke-linecap:butt;stroke-linejoin:round;stroke-miterlimit:4;stroke-dasharray:none;stroke-dashoffset:0;stroke-opacity:1"
       d="m 414.69727,553.59961 c -1.47039,0 -2.6543,1.18392 -2.6543,2.6543 l -1.6e-4,62.92187 c 0,1.47038 1.18407,2.6543 2.65446,2.6543 h 127.15039 c 1.47038,0 2.65429,-1.18392 2.65429,-2.6543 l 0.75409,-7.73922 40.11896,-0.75492 c 1.17609,-0.0221 2.12305,-0.94674 2.12305,-2.12305 v -42.21875 c 0,-1.1763 -0.94675,-2.12304 -2.12305,-2.12304 l -40.11896,-0.75757 -0.75409,-7.20532 c -0.15305,-1.46239 -1.18391,-2.6543 -2.65429,-2.6543 z m 20.58984,23.07031 c 5.23224,-7.6e-4 9.4743,4.24042 9.47461,9.47266 -3.2e-4,5.23223 -4.24238,9.47341 -9.47461,9.47265 -5.23147,-3.1e-4 -9.47234,-4.24118 -9.47266,-9.47265 3.1e-4,-5.23148 4.24118,-9.47235 9.47266,-9.47266 z"
       id="rect4496"
       inkscape:connector-curvature="0"
       sodipodi:nodetypes="sssssscsssscsssccccc"
       transform="scale(0.26458333)" />
    <circle
       r="5.6261988"
       cy="155.49174"
       cx="127.85191"
       id="circle4635"
       style="opacity:1;fill:#ffffef;fill-opacity:1;fill-rule:evenodd;stroke:none;stroke-width:0.79400003;stroke-linecap:butt;stroke-linejoin:round;stroke-miterlimit:4;stroke-dasharray:none;stroke-dashoffset:0;stroke-opacity:1"
       inkscape:export-filename="/home/vi/u2f-demo/images/u2f-token.png"
       inkscape:export-xdpi="215.18021"
       inkscape:export-ydpi="215.18021" />
    <path
       style="color:#000000;font-style:normal;font-variant:normal;font-weight:normal;font-stretch:normal;font-size:medium;line-height:normal;font-family:sans-serif;font-variant-ligatures:normal;font-variant-position:normal;font-variant-caps:normal;font-variant-numeric:normal;font-variant-alternates:normal;font-feature-settings:normal;text-indent:0;text-align:start;text-decoration:none;text-decoration-line:none;text-decoration-style:solid;text-decoration-color:#000000;letter-spacing:normal;word-spacing:normal;text-transform:none;writing-mode:lr-tb;direction:ltr;text-orientation:mixed;dominant-baseline:auto;baseline-shift:baseline;text-anchor:start;white-space:normal;shape-padding:0;clip-rule:nonzero;display:inline;overflow:visible;visibility:visible;opacity:1;isolation:auto;mix-blend-mode:normal;color-interpolation:sRGB;color-interpolation-filters:linearRGB;solid-color:#000000;solid-opacity:1;vector-effect:none;fill:#ffffef;fill-opacity:1;fill-rule:evenodd;stroke:none;stroke-width:0.52916664;stroke-linecap:butt;stroke-linejoin:round;stroke-miterlimit:4;stroke-dasharray:none;stroke-dashoffset:0;stroke-opacity:1;color-rendering:auto;image-rendering:auto;shape-rendering:auto;text-rendering:auto;enable-background:accumulate"
       mask="none"
       clip-path="none"
       d="m 145.9084,150.12727 c -0.14617,-5.3e-4 -0.26509,0.11738 -0.26561,0.26355 v 1.77456 c -5.3e-4,0.14693 0.11869,0.36614 0.26561,0.36558 l 8.42688,-4e-5 c 0.14617,-5.3e-4 0.26411,-0.21937 0.26355,-0.36554 v -1.77456 c -5.3e-4,-0.14541 -0.11814,-0.26304 -0.26355,-0.26355 z m 0.0289,2.51961 c -0.13542,0.0135 -0.23844,0.42783 -0.23822,0.56392 v 1.69447 c 5.2e-4,0.14617 0.11944,0.46421 0.26561,0.46365 h 7.49773 c 0.14542,-5.3e-4 0.26303,-0.31824 0.26356,-0.46365 v -1.69447 c -5.3e-4,-0.14541 -0.11815,-0.66337 -0.26356,-0.66388 l -7.49773,0.1 c -0.009,-5.3e-4 -0.0183,-5.3e-4 -0.0274,0 z m 0.0274,2.83804 c -0.14693,-5.3e-4 -0.26618,0.31883 -0.26561,0.46576 v 1.69189 c -5.3e-4,0.14693 0.11868,0.56591 0.26561,0.56535 l 7.49773,0.1 c 0.14618,-5.3e-4 0.26412,-0.51918 0.26356,-0.66535 v -1.69189 c 5.2e-4,-0.14617 -0.11738,-0.46526 -0.26356,-0.46576 z m -0.0837,2.839 c -0.13542,0.0135 -0.23843,0.22797 -0.23823,0.36406 v 1.77457 c -5.3e-4,0.14693 0.11869,0.26618 0.26561,0.26562 h 8.42688 c 0.14617,-5.3e-4 0.26411,-0.11945 0.26355,-0.26562 v -1.77457 c -5.3e-4,-0.14541 -0.11814,-0.36354 -0.26355,-0.36406 l -8.42688,0 c -0.009,-5.3e-4 -0.0183,-5.3e-4 -0.0274,0 z"
       id="path4589"
       inkscape:connector-curvature="0"
       sodipodi:nodetypes="cccccccccccccccccccccccccccccccccccccccc" />
    <path
       style="color:#000000;font-style:normal;font-variant:normal;font-weight:normal;font-stretch:normal;font-size:medium;line-height:normal;font-family:sans-serif;font-variant-ligatures:normal;font-variant-position:normal;font-variant-caps:normal;font-variant-numeric:normal;font-variant-alternates:normal;font-feature-settings:normal;text-indent:0;text-align:start;text-decoration:none;text-decoration-line:none;text-decoration-style:solid;text-decoration-color:#000000;letter-spacing:normal;word-spacing:normal;text-transform:none;writing-mode:lr-tb;direction:ltr;text-orientation:mixed;dominant-baseline:auto;baseline-shift:baseline;text-anchor:start;white-space:normal;shape-padding:0;clip-rule:nonzero;display:inline;overflow:visible;visibility:visible;opacity:1;isolation:auto;mix-blend-mode:normal;color-interpolation:sRGB;color-interpolation-filters:linearRGB;solid-color:#000000;solid-opacity:1;vector-effect:none;fill:#0e2740;fill-opacity:1;fill-rule:evenodd;stroke:none;stroke-width:0.79400003;stroke-linecap:butt;stroke-linejoin:round;stroke-miterlimit:4;stroke-dasharray:none;stroke-dashoffset:0;stroke-opacity:1;color-rendering:auto;image-rendering:auto;shape-rendering:auto;text-rendering:auto;enable-background:accumulate"
       d="m 127.85156,149.76892 c -3.32182,0 -6.0529,2.40144 -6.0529,5.72326 0,3.32182 2.73108,5.72374 6.0529,5.72374 3.32182,0 6.0531,-2.40218 6.0531,-5.724 0,-3.32182 -2.73128,-5.723 -6.0531,-5.723 z m 0,1.02196 c 2.89271,0 5.23047,1.80859 5.23047,4.7013 0,2.89271 -2.33766,4.69974 -5.23037,4.69974 -2.89271,0 -5.22861,-1.80703 -5.22861,-4.69974 0,-2.89271 2.3358,-4.7013 5.22851,-4.7013 z"
       id="circle4641"
       inkscape:connector-curvature="0"
       sodipodi:nodetypes="ssssssssss" />
    <path
       style="color:#000000;font-style:normal;font-variant:normal;font-weight:normal;font-stretch:normal;font-size:medium;line-height:normal;font-family:sans-serif;font-variant-ligatures:normal;font-variant-position:normal;font-variant-caps:normal;font-variant-numeric:normal;font-variant-alternates:normal;font-feature-settings:normal;text-indent:0;text-align:start;text-decoration:none;text-decoration-line:none;text-decoration-style:solid;text-decoration-color:#000000;letter-spacing:normal;word-spacing:normal;text-transform:none;writing-mode:lr-tb;direction:ltr;text-orientation:mixed;dominant-baseline:auto;baseline-shift:baseline;text-anchor:start;white-space:normal;shape-padding:0;clip-rule:nonzero;display:inline;overflow:visible;visibility:visible;opacity:1;isolation:auto;mix-blend-mode:normal;color-interpolation:sRGB;color-interpolation-filters:linearRGB;solid-color:#000000;solid-opacity:1;vector-effect:none;fill:#0e2740;fill-opacity:1;fill-rule:evenodd;stroke:none;stroke-width:0.52916664;stroke-linecap:butt;stroke-linejoin:round;stroke-miterlimit:4;stroke-dasharray:none;stroke-dashoffset:0;stroke-opacity:1;color-rendering:auto;image-rendering:auto;shape-rendering:auto;text-rendering:auto;enable-background:accumulate"
       d="m 154.03544,160.99263 c 0.28965,-0.001 0.82856,-0.24219 0.82745,-0.53123 v -2.07433 c -0.001,-0.28755 -0.58502,-0.52659 -0.87323,-0.52761 l 4.5e-4,-4.8641 c 0.40614,0.0425 0.86205,-0.13737 0.87278,-0.53123 v -2.07333 -0.001 c -0.001,-0.28755 -0.53981,-0.52607 -0.82739,-0.52709 l -7.82584,-2e-5 c -0.28897,-10e-4 -0.83043,0.23792 -0.83145,0.52709 v 0.001 l 4.5e-4,10.07062 c -0.001,0.29056 0.54037,0.53235 0.831,0.53123 m 8.125,-10.60071 v 2.07307 l -8.472,0.001 v -2.07434 z m -8.472,2.6198 h 7.599 v 2.1922 h -7.599 z m 0,2.6382 h 7.599 v 2.19321 l -7.599,0.001 z m 0,2.73879 h 8.472 v 2.07385 l -8.472,0.001 z"
       mask="none"
       clip-path="none"
       id="path4496"
       inkscape:connector-curvature="0"
       sodipodi:nodetypes="cccccccccccccccccccccccccccccccccc" />
    <path
       style="opacity:1;fill:#0e2740;fill-opacity:1;fill-rule:evenodd;stroke:none;stroke-width:0.03034779;stroke-linecap:square;stroke-linejoin:round;stroke-miterlimit:4;stroke-dasharray:none;stroke-dashoffset:0;stroke-opacity:1"
       d="m 128.57466,155.49192 c 0,0.43838 -0.28472,0.823 -0.7231,0.823 -0.43838,0 -0.7229,-0.38462 -0.7229,-0.823 0,-0.43838 0.28462,-0.823 0.723,-0.823 0.43838,0 0.723,0.38462 0.723,0.823 z"
       id="path5142"
       inkscape:connector-curvature="0"
       sodipodi:nodetypes="sssss" />
    <path
       style="color:#000000;font-style:normal;font-variant:normal;font-weight:normal;font-stretch:normal;font-size:medium;line-height:normal;font-family:sans-serif;font-variant-ligatures:normal;font-variant-position:normal;font-variant-caps:normal;font-variant-numeric:normal;font-variant-alternates:normal;font-feature-settings:normal;text-indent:0;text-align:start;text-decoration:none;text-decoration-line:none;text-decoration-style:solid;text-decoration-color:#000000;letter-spacing:normal;word-spacing:normal;text-transform:none;writing-mode:lr-tb;direction:ltr;text-orientation:mixed;dominant-baseline:auto;baseline-shift:baseline;text-anchor:start;white-space:normal;shape-padding:0;clip-rule:nonzero;display:inline;overflow:visible;visibility:visible;opacity:1;isolation:auto;mix-blend-mode:normal;color-interpolation:sRGB;color-interpolation-filters:linearRGB;solid-color:#000000;solid-opacity:1;vector-effect:none;fill:#0e2740;fill-opacity:1;fill-rule:evenodd;stroke:none;stroke-width:0.79374999;stroke-linecap:butt;stroke-linejoin:round;stroke-miterlimit:4;stroke-dasharray:none;stroke-dashoffset:0;stroke-opacity:1;color-rendering:auto;image-rendering:auto;shape-rendering:auto;text-rendering:auto;enable-background:accumulate"
       d="m 115.16966,152.37992 c -1.59863,1e-4 -2.8029,1.105 -2.803,2.70364 1e-4,1.59863 1.20442,2.70326 2.80305,2.70336 1.59886,2.3e-4 2.80385,-1.10414 2.80395,-2.703 -9e-5,-1.59887 -1.20514,-2.70423 -2.804,-2.704 z m 5e-5,0.823 c 1.16987,-1.7e-4 1.88088,0.71077 1.88095,1.88064 -7e-5,1.16986 -0.71108,1.88053 -1.88095,1.88036 -1.16969,-7e-5 -1.87998,-0.71032 -1.88005,-1.88 7e-5,-1.1697 0.71036,-1.88093 1.88005,-1.881 z"
       id="path4511"
       inkscape:connector-curvature="0"
       sodipodi:nodetypes="cccccccccc" />
    <path
       sodipodi:nodetypes="sssssscsssscssssssccssssccssssss"
       inkscape:connector-curvature="0"
       id="path5217"
       d="m 110.02166,145.84692 c -0.60207,0 -1.628,1.02693 -1.628,1.629 v 16.048 c 0,0.60207 1.02593,1.628 1.628,1.628 h 33.042 c 0.60207,0 1.629,-1.02625 1.629,-1.62832 v -1.32136 l 9.888,-3.2e-4 c 0.52418,-2e-5 1.488,-0.96282 1.488,-1.487 v -10.571 c 0,-0.52418 -0.96408,-1.47163 -1.488,-1.488 h -9.888 v -1.48 c 0,-0.60207 -1.02693,-1.329 -1.629,-1.329 z m -0.1,0.723 h 33.142 c 0.176,0 0.906,0.43 0.906,0.606 v 1.806 c 2e-5,0.21918 0.17682,0.39698 0.396,0.397 h 10.215 c 0.0983,0 0.765,0.66675 0.765,0.765 v 10.57 c 0,0.0983 -0.66671,0.765 -0.765,0.765 h -10.215 c -0.21918,2e-5 -0.39598,0.17782 -0.396,0.397 v 1.648 c 0,0.176 -0.73,0.905 -0.906,0.905 h -33.042 c -0.176,0 -0.905,-0.729 -0.905,-0.905 v -16.048 c 0,-0.176 0.629,-0.906 0.805,-0.906 z"
       style="color:#000000;font-style:normal;font-variant:normal;font-weight:normal;font-stretch:normal;font-size:medium;line-height:normal;font-family:sans-serif;font-variant-ligatures:normal;font-variant-position:normal;font-variant-caps:normal;font-variant-numeric:normal;font-variant-alternates:normal;font-feature-settings:normal;text-indent:0;text-align:start;text-decoration:none;text-decoration-line:none;text-decoration-style:solid;text-decoration-color:#000000;letter-spacing:normal;word-spacing:normal;text-transform:none;writing-mode:lr-tb;direction:ltr;text-orientation:mixed;dominant-baseline:auto;baseline-shift:baseline;text-anchor:start;white-space:normal;shape-padding:0;clip-rule:nonzero;display:inline;overflow:visible;visibility:visible;opacity:1;isolation:auto;mix-blend-mode:normal;color-interpolation:sRGB;color-interpolation-filters:linearRGB;solid-color:#000000;solid-opacity:1;vector-effect:none;fill:#0e2740;fill-opacity:1;fill-rule:evenodd;stroke:none;stroke-width:0.79374999;stroke-linecap:butt;stroke-linejoin:round;stroke-miterlimit:4;stroke-dasharray:none;stroke-dashoffset:0;stroke-opacity:1;color-rendering:auto;image-rendering:auto;shape-rendering:auto;text-rendering:auto;enable-background:accumulate" />
  </g>
</svg>
